<svg version="1.1" id="Layer_1" xmlns="http://www.w3.org/2000/svg" xmlns:xlink="http://www.w3.org/1999/xlink" x="0px" y="0px"
	 width="100%" viewBox="0 0 225 225" enable-background="new 0 0 225 225" xml:space="preserve">
<path fill="#2F8D46" opacity="1.000000" stroke="none" 
	d="
M105.000000,226.000000 
	C70.000000,226.000000 35.500004,226.000000 1.000005,226.000000 
	C1.000003,151.000000 1.000003,76.000015 1.000002,1.000015 
	C75.999992,1.000010 150.999985,1.000010 225.999969,1.000005 
	C225.999985,75.999985 225.999985,150.999969 226.000000,225.999969 
	C185.833328,226.000000 145.666672,226.000000 105.000000,226.000000 
M90.880272,154.419327 
	C102.740494,148.357193 109.696907,138.211227 114.236771,125.653252 
	C118.715843,138.296280 125.568726,148.342087 137.369537,154.357330 
	C149.227921,160.401932 161.430603,160.830276 173.589172,155.764999 
	C190.980072,148.519867 202.926651,128.374268 199.044296,112.795761 
	C175.989227,112.795761 152.784683,112.795761 129.089798,112.795761 
	C130.767517,101.968544 136.143524,94.567039 145.510361,90.577873 
	C158.015259,85.252296 169.165283,88.078522 178.410080,97.493454 
	C181.986435,94.145912 185.361984,90.986336 188.894882,87.679482 
	C179.749313,77.966415 168.816803,72.902901 155.799500,73.579048 
	C133.605743,74.731842 120.570641,87.527290 114.176376,108.953705 
	C103.211220,67.588348 57.983311,65.410759 39.893646,87.545479 
	C43.192818,90.800888 46.491993,94.056297 49.854370,97.374069 
	C60.182442,87.987450 71.906914,84.497147 85.179459,91.740150 
	C93.345749,96.196602 98.048767,103.149612 99.133430,113.032318 
	C75.373825,113.032318 52.268463,113.032318 29.242426,113.032318 
	C26.726881,125.214630 33.533810,141.302963 44.615681,149.740295 
	C58.758823,160.508362 74.042435,161.979019 90.880272,154.419327 
z"/>
<path fill="#FBFCFB" opacity="1.000000" stroke="none" 
	d="
M90.554581,154.603363 
	C74.042435,161.979019 58.758823,160.508362 44.615681,149.740295 
	C33.533810,141.302963 26.726881,125.214630 29.242426,113.032318 
	C52.268463,113.032318 75.373825,113.032318 99.133430,113.032318 
	C98.048767,103.149612 93.345749,96.196602 85.179459,91.740150 
	C71.906914,84.497147 60.182442,87.987450 49.854370,97.374069 
	C46.491993,94.056297 43.192818,90.800888 39.893391,87.549500 
	C57.983311,65.410759 103.211220,67.588348 114.176376,108.953705 
	C120.570641,87.527290 133.605743,74.731842 155.799500,73.579048 
	C168.816803,72.902901 179.749313,77.966415 188.894882,87.679482 
	C185.361984,90.986336 181.986435,94.145912 178.410080,97.493454 
	C169.165283,88.078522 158.015259,85.252296 145.510361,90.577873 
	C136.143524,94.567039 130.767517,101.968544 129.089798,112.795761 
	C152.784683,112.795761 175.989227,112.795761 199.044296,112.795761 
	C202.926651,128.374268 190.980072,148.519867 173.589172,155.764999 
	C161.430603,160.830276 149.227921,160.401932 137.369537,154.357330 
	C125.568726,148.342087 118.715843,138.296280 114.236771,125.653252 
	C109.696907,138.211227 102.740494,148.357193 90.554581,154.603363 
M95.089905,126.043320 
	C79.062523,126.093597 63.035137,126.143883 46.418095,126.030731 
	C46.259991,126.694626 46.101891,127.358521 46.055355,128.709976 
	C56.862286,148.020493 82.003899,150.006821 94.704453,132.190781 
	C94.865005,131.814499 95.025558,131.438232 95.698006,130.644012 
	C96.170242,129.430939 96.642479,128.217865 97.164658,126.393829 
	C96.783020,126.325386 96.401390,126.256943 95.089905,126.043320 
M131.625351,128.459213 
	C137.887939,140.285080 148.795349,145.947601 161.670349,144.056931 
	C171.687759,142.585892 181.141968,134.619827 182.727997,126.178169 
	C165.800079,126.178169 148.901428,126.178169 131.365372,126.151405 
	C131.384460,126.710800 131.403549,127.270187 131.625351,128.459213 
z"/>
<path fill="#318E48" opacity="1.000000" stroke="none" 
	d="
M132.002777,126.178169 
	C148.901428,126.178169 165.800079,126.178169 182.727997,126.178169 
	C181.141968,134.619827 171.687759,142.585892 161.670349,144.056931 
	C148.795349,145.947601 137.887939,140.285080 131.679871,127.734940 
	C131.823868,126.733162 131.913330,126.455666 132.002777,126.178169 
z"/>
<path fill="#318E48" opacity="1.000000" stroke="none" 
	d="
M47.007751,126.194168 
	C63.035137,126.143883 79.062523,126.093597 95.719711,126.274742 
	C96.581131,126.708366 96.836197,126.874573 97.114716,127.004791 
	C96.642479,128.217865 96.170242,129.430939 95.232033,131.064636 
	C94.565826,131.827133 94.365593,132.169022 94.165375,132.510925 
	C82.003899,150.006821 56.862286,148.020493 46.186207,128.172607 
	C46.547291,127.154892 46.777523,126.674530 47.007751,126.194168 
z"/>
<path fill="#37934D" opacity="1.000000" stroke="none" 
	d="
M46.712921,126.112450 
	C46.777523,126.674530 46.547291,127.154892 46.130424,127.828835 
	C46.101891,127.358521 46.259991,126.694626 46.712921,126.112450 
z"/>
<path fill="#37934D" opacity="1.000000" stroke="none" 
	d="
M97.139679,126.699310 
	C96.836197,126.874573 96.581131,126.708366 96.184631,126.347336 
	C96.401390,126.256943 96.783020,126.325386 97.139679,126.699310 
z"/>
<path fill="#35924C" opacity="1.000000" stroke="none" 
	d="
M131.684082,126.164787 
	C131.913330,126.455666 131.823868,126.733162 131.578522,127.420120 
	C131.403549,127.270187 131.384460,126.710800 131.684082,126.164787 
z"/>
<path fill="#37934D" opacity="1.000000" stroke="none" 
	d="
M94.434906,132.350861 
	C94.365593,132.169022 94.565826,131.827133 94.976089,131.273605 
	C95.025558,131.438232 94.865005,131.814499 94.434906,132.350861 
z"/>
</svg>